<?xml version="1.0" encoding="UTF-8"?>
<svg version="1.1" xmlns="http://www.w3.org/2000/svg" width="460" height="146">
<path d="M0 0 C151.8 0 303.6 0 460 0 C460 48.18 460 96.36 460 146 C308.2 146 156.4 146 0 146 C0 97.82 0 49.64 0 0 Z " fill="#FDFDFD" transform="translate(0,0)"/>
<path d="M0 0 C5.50340373 3.9547072 9.16714299 8.53389045 12.45703125 14.42578125 C12.99585938 15.34875 13.5346875 16.27171875 14.08984375 17.22265625 C17.0373299 24.12819524 16.44744308 32.61379618 14.578125 39.80859375 C12.7886083 44.23809054 11.27711025 47.56103404 6.76953125 49.55078125 C5.67640625 49.83953125 4.58328125 50.12828125 3.45703125 50.42578125 C2.46703125 50.92078125 2.46703125 50.92078125 1.45703125 51.42578125 C-11.57260993 52.49128929 -19.67933022 50.7502975 -29.85546875 42.11328125 C-36.59142323 35.74743416 -41.10432993 29.02554699 -41.84375 19.5859375 C-41.85818224 18.22012275 -41.86192985 16.85415697 -41.85546875 15.48828125 C-41.87158203 14.81087891 -41.88769531 14.13347656 -41.90429688 13.43554688 C-41.91004416 7.44112659 -40.45823366 2.97946779 -36.85546875 -1.82421875 C-25.29069618 -10.57593853 -11.40997535 -7.06331807 0 0 Z " fill="#FCFCFC" transform="translate(131.54296875,44.57421875)"/>
<path d="M0 0 C2.95599046 2.7747802 4.23074387 5.39836592 5.8203125 9.15234375 C6.08059738 9.76038345 6.34088226 10.36842316 6.60905457 10.99488831 C7.45441607 12.97297553 8.28987734 14.95507099 9.125 16.9375 C10.2847227 19.66666314 11.44874878 22.39398005 12.61328125 25.12109375 C12.90118027 25.79711639 13.18907928 26.47313904 13.48570251 27.16964722 C15.21529166 31.21671346 17.00124346 35.23061827 18.85546875 39.22265625 C19.27489746 40.12701416 19.69432617 41.03137207 20.12646484 41.96313477 C20.89509847 43.60720064 21.67225985 45.24731723 22.45947266 46.88256836 C24.40559012 51.06528926 25.6333799 54.28097174 25 59 C23 61.875 23 61.875 21 64 C20.01 63.505 20.01 63.505 19 63 C18.78319052 61.08870863 18.56914963 59.17704797 18.37158203 57.26367188 C17.74415026 53.44136743 16.1504703 50.19559226 14.4375 46.75 C14.12748047 46.05648437 13.81746094 45.36296875 13.49804688 44.6484375 C11.169421 39.90947959 8.75987939 37.80459163 3.94799805 35.65136719 C0.75407183 34.58338935 -1.67902897 34.50800429 -5 35 C-8.82001478 37.05693103 -11.95400772 39.12338304 -14 43 C-15.48510782 48.94043128 -15.02520011 52.03968372 -12.0078125 57.3359375 C-11.67523438 57.88507813 -11.34265625 58.43421875 -11 59 C-10.67 59.66 -10.34 60.32 -10 61 C-12.82572058 59.96706853 -13.82978305 59.32047018 -15.265625 56.6171875 C-15.59046875 55.71226563 -15.9153125 54.80734375 -16.25 53.875 C-16.58515625 52.96492188 -16.9203125 52.05484375 -17.265625 51.1171875 C-17.50796875 50.41851562 -17.7503125 49.71984375 -18 49 C-18.66 49 -19.32 49 -20 49 C-20.12375 49.78375 -20.2475 50.5675 -20.375 51.375 C-21 54 -21 54 -23 56 C-22.29087049 50.97445761 -20.30203219 46.54157526 -18.359375 41.89453125 C-17.99531555 41.01528488 -17.6312561 40.13603851 -17.25616455 39.23014832 C-16.48500626 37.37085375 -15.71157622 35.51250001 -14.93603516 33.6550293 C-13.76239072 30.84219641 -12.59745261 28.02587803 -11.43359375 25.20898438 C-10.68020962 23.39561632 -9.9263191 21.58245856 -9.171875 19.76953125 C-8.82896423 18.94000443 -8.48605347 18.1104776 -8.13275146 17.2558136 C-5.66837941 11.37232615 -2.91389131 5.67356251 0 0 Z " fill="#DEDEDE" transform="translate(323,35)"/>
<path d="M0 0 C0.9502002 0.00193359 1.90040039 0.00386719 2.87939453 0.00585938 C12.54065757 0.0633764 22.17070461 0.53938119 31.8125 1.125 C32.4725 3.105 33.1325 5.085 33.8125 7.125 C32.760625 6.465 31.70875 5.805 30.625 5.125 C24.9711482 2.24723011 19.01265278 2.56962655 12.8125 3.125 C11.15756882 4.77993118 11.67925466 6.73151428 11.6706543 9.00854492 C11.66361984 10.05020309 11.65658539 11.09186127 11.64933777 12.16508484 C11.64517349 13.30041153 11.64100922 14.43573822 11.63671875 15.60546875 C11.61351418 17.99024314 11.58939658 20.37500879 11.56445312 22.75976562 C11.5293604 26.53431991 11.50001405 30.30855455 11.48657227 34.08325195 C11.4710892 37.71605616 11.43086489 41.34791452 11.38671875 44.98046875 C11.38862717 46.10567429 11.39053558 47.23087982 11.39250183 48.3901825 C11.29627448 54.56039772 11.06562514 58.49172355 6.8125 63.125 C4.0625 64.5 4.0625 64.5 1.8125 65.125 C2.1425 64.465 2.4725 63.805 2.8125 63.125 C2.91642272 61.42578425 2.95844839 59.72261371 2.97021484 58.02026367 C2.98047699 56.95543259 2.99073914 55.8906015 3.00131226 54.79350281 C3.01226425 53.06073845 3.01226425 53.06073845 3.0234375 51.29296875 C3.0515067 48.8613214 3.08017117 46.42968086 3.109375 43.99804688 C3.15065095 40.1532409 3.18752698 36.30856201 3.21386719 32.46362305 C3.2414535 28.76063557 3.28732877 25.0582319 3.3359375 21.35546875 C3.33919037 20.2063652 3.34244324 19.05726166 3.34579468 17.87333679 C3.36236115 16.79904922 3.37892761 15.72476166 3.39599609 14.61791992 C3.40408295 13.67575119 3.4121698 12.73358246 3.42050171 11.76286316 C3.88964635 8.60586119 4.95643495 6.70101425 6.8125 4.125 C7.4725 3.795 8.1325 3.465 8.8125 3.125 C5.4168303 3.03754054 2.02145227 2.98445556 -1.375 2.9375 C-2.33470703 2.91236328 -3.29441406 2.88722656 -4.28320312 2.86132812 C-9.4416508 2.80778023 -12.98118508 2.77849294 -17.1875 6.125 C-18.1775 6.62 -18.1775 6.62 -19.1875 7.125 C-18.5275 5.145 -17.8675 3.165 -17.1875 1.125 C-11.42378717 0.134239 -5.8417063 -0.02891423 0 0 Z " fill="#1B1B1B" transform="translate(377.1875,33.875)"/>
<path d="M0 0 C0.8971875 0.309375 0.8971875 0.309375 1.8125 0.625 C-0.1675 1.615 -0.1675 1.615 -2.1875 2.625 C-2.31175323 8.72640685 -2.40214741 14.82706584 -2.4621582 20.92944336 C-2.48719303 23.00216514 -2.52123145 25.0747996 -2.56469727 27.1472168 C-2.62583661 30.1387291 -2.65382048 33.12906734 -2.67578125 36.12109375 C-2.70158768 37.03708847 -2.7273941 37.95308319 -2.75398254 38.89683533 C-2.75682011 45.51059571 -1.17815851 50.30046426 2.8125 55.625 C7.44779833 59.83209736 12.30412895 60.96764577 18.39453125 60.91796875 C23.53080378 60.29564171 27.59087512 57.43941659 31.8125 54.625 C30.02521702 59.17444759 26.89005718 61.62905764 22.5390625 63.71484375 C16.85079471 65.61364947 10.06801341 65.80499192 4.3984375 63.75 C-2.42914141 59.7430811 -7.1006331 54.25166766 -9.1875 46.625 C-9.48804079 43.57085271 -9.51519535 40.53224755 -9.5234375 37.46484375 C-9.5300943 36.59735001 -9.5367511 35.72985626 -9.54360962 34.83607483 C-9.5536962 33.00979726 -9.55842788 31.18348313 -9.55810547 29.35717773 C-9.56249201 26.56758171 -9.59888916 23.77955235 -9.63671875 20.99023438 C-9.64258515 19.21094288 -9.64655573 17.43164392 -9.6484375 15.65234375 C-9.66999405 14.40686012 -9.66999405 14.40686012 -9.69198608 13.13621521 C-9.66069122 9.16368843 -9.50157238 7.12634146 -7.34619141 3.68579102 C-2.95471657 -0.50652284 -2.95471657 -0.50652284 0 0 Z " fill="#080808" transform="translate(173.1875,35.375)"/>
<path d="M0 0 C0.33 0.66 0.66 1.32 1 2 C0.67 2.66 0.34 3.32 0 4 C-0.88215638 16.3791125 -0.06445099 25.53332707 8.25 35.3125 C12.09447104 39.34034219 15.9884622 42.55534741 21 45 C21.73734375 45.36480469 22.4746875 45.72960937 23.234375 46.10546875 C26.83428076 47.26984505 30.25730009 47.32976338 34 47.3125 C34.69867188 47.32861328 35.39734375 47.34472656 36.1171875 47.36132812 C40.67654001 47.3656294 43.24881539 46.50308826 47 44 C47.99 44.495 47.99 44.495 49 45 C47.82009775 45.80294647 46.63054311 46.59171174 45.4375 47.375 C44.44556641 48.03628906 44.44556641 48.03628906 43.43359375 48.7109375 C35.08036264 53.13560245 24.61639994 53.71757347 15.640625 50.97265625 C6.0617635 46.58437072 -0.48364973 39.79728263 -4.32421875 29.984375 C-7.59635089 20.37603322 -6.10166047 12.1314339 -2 3 C-1.34 2.01 -0.68 1.02 0 0 Z " fill="#111111" transform="translate(91,48)"/>
<path d="M0 0 C6.57310606 4.21670955 11.53346401 11.60039203 14 19 C14.91351397 30.27438124 14.86396821 39.48646894 8 49 C7.01 49.495 7.01 49.495 6 50 C6.309375 49.236875 6.61875 48.47375 6.9375 47.6875 C9.99417196 39.95591798 10.64350884 30.64373975 7.8359375 22.7109375 C6.37418877 19.98983602 4.81071074 17.50050531 3 15 C2.58234375 14.39671875 2.1646875 13.7934375 1.734375 13.171875 C-3.69479495 6.00537067 -11.39435255 2.08929761 -20 0 C-26.27428702 -0.6274287 -32.14841171 -0.60070591 -38 2 C-28.07805093 -9.02789881 -11.64976796 -6.31762341 0 0 Z " fill="#121212" transform="translate(137,39)"/>
<path d="M0 0 C0.66 0.33 1.32 0.66 2 1 C1.76917725 1.65742187 1.53835449 2.31484375 1.30053711 2.9921875 C0.87717894 7.22920833 2.48205752 10.35000373 4.19140625 14.125 C4.53372787 14.90834717 4.8760495 15.69169434 5.22874451 16.4987793 C6.32761048 19.00485514 7.44481494 21.50226928 8.5625 24 C9.28830344 25.6492146 10.01292486 27.29894994 10.73632812 28.94921875 C14.69324746 37.98763935 14.69324746 37.98763935 18.90185547 46.91015625 C19.4588916 48.05355469 20.01592773 49.19695312 20.58984375 50.375 C21.08218506 51.35210937 21.57452637 52.32921875 22.08178711 53.3359375 C23.15871271 56.46048208 23.0833606 57.89981517 22 61 C20.4375 63.3125 20.4375 63.3125 19 65 C15.56108345 57.35329339 12.13091919 49.70277758 8.71086121 42.04762268 C6.72031512 37.59666738 4.70842286 33.15599366 2.6875 28.71875 C1.68719288 26.50013845 0.687178 24.2813951 -0.3125 22.0625 C-0.78598877 21.03455322 -1.25947754 20.00660645 -1.74731445 18.94750977 C-2.1774585 17.98643311 -2.60760254 17.02535645 -3.05078125 16.03515625 C-3.42887939 15.2037915 -3.80697754 14.37242676 -4.1965332 13.51586914 C-5.15955256 10.50039831 -5.30552541 8.14779695 -5 5 C-2.5 2.125 -2.5 2.125 0 0 Z " fill="#0F0F0F" transform="translate(233,35)"/>
<path d="M0 0 C3.07139283 2.5881951 4.26944684 5.48976812 5.8203125 9.15234375 C6.08059738 9.76038345 6.34088226 10.36842316 6.60905457 10.99488831 C7.45441607 12.97297553 8.28987734 14.95507099 9.125 16.9375 C10.2847227 19.66666314 11.44874878 22.39398005 12.61328125 25.12109375 C12.90118027 25.79711639 13.18907928 26.47313904 13.48570251 27.16964722 C15.21529166 31.21671346 17.00124346 35.23061827 18.85546875 39.22265625 C19.27489746 40.12701416 19.69432617 41.03137207 20.12646484 41.96313477 C20.89509847 43.60720064 21.67225985 45.24731723 22.45947266 46.88256836 C24.40559012 51.06528926 25.6333799 54.28097174 25 59 C23 61.875 23 61.875 21 64 C20.34 63.67 19.68 63.34 19 63 C18.87818359 61.41832031 18.87818359 61.41832031 18.75390625 59.8046875 C18.12932737 53.73696435 15.37265757 48.50141347 12.82327271 43.02862549 C11.92655017 41.10146759 11.04533613 39.16786181 10.16772461 37.23193359 C7.59765216 31.57541013 4.98365997 25.94227391 2.2890625 20.34375 C1.9062915 19.53147949 1.52352051 18.71920898 1.12915039 17.88232422 C0.44145746 16.42697771 -0.26389299 14.97978168 -0.99047852 13.54345703 C-2.70472083 9.8928323 -3.02030983 8.10654684 -2.25390625 4.0859375 C-1 1 -1 1 0 0 Z " fill="#0E0E0E" transform="translate(323,35)"/>
<path d="M0 0 C0.99 0.33 1.98 0.66 3 1 C2.01 1.495 2.01 1.495 1 2 C1.54157409 6.86180631 2.99380044 10.26406212 5.37890625 14.515625 C6.06320599 15.77020736 6.74491952 17.02620309 7.42431641 18.28344727 C7.77568665 18.93193634 8.12705688 19.58042542 8.48907471 20.24856567 C14.69978635 31.8286277 20.26743212 42.5724099 17 56 C15.16324673 59.65348743 13.42300003 61.75734481 10 64 C9.34 63.67 8.68 63.34 8 63 C8.66 62.34 9.32 61.68 10 61 C13.07186894 45.12590968 7.79901402 33.61350029 0.33618164 20.04394531 C-0.00823471 19.41522522 -0.35265106 18.78650513 -0.70750427 18.13873291 C-1.66317742 16.41285985 -2.64242206 14.70010016 -3.62304688 12.98828125 C-5.02361318 9.94875438 -5.52039371 8.2855127 -5 5 C-2.5 2.1875 -2.5 2.1875 0 0 Z " fill="#0D0D0D" transform="translate(37,35)"/>
<path d="M0 0 C0.8971875 0.309375 0.8971875 0.309375 1.8125 0.625 C0.4925 0.955 -0.8275 1.285 -2.1875 1.625 C-2.19336624 2.30294113 -2.19923248 2.98088226 -2.20527649 3.67936707 C-2.26921579 10.73614535 -2.35363745 17.79246781 -2.44995117 24.84887695 C-2.48320325 27.48227936 -2.51123424 30.11575309 -2.53393555 32.74926758 C-2.56747529 36.53497711 -2.6197932 40.32003289 -2.67578125 44.10546875 C-2.68536613 45.8713459 -2.68536613 45.8713459 -2.69514465 47.67289734 C-2.71493881 48.77366104 -2.73473297 49.87442474 -2.75512695 51.00854492 C-2.77178154 52.45749397 -2.77178154 52.45749397 -2.78877258 53.93571472 C-3.26334659 57.13656033 -4.27827048 59.0292425 -6.1875 61.625 C-8.875 62.9375 -8.875 62.9375 -11.1875 63.625 C-10.8575 62.635 -10.5275 61.645 -10.1875 60.625 C-10.09171784 58.92350586 -10.05212217 57.21857996 -10.0456543 55.5144043 C-10.03861984 54.47289719 -10.03158539 53.43139008 -10.02433777 52.35832214 C-10.02017349 51.23331802 -10.01600922 50.1083139 -10.01171875 48.94921875 C-9.98852097 46.57095469 -9.96440365 44.19269945 -9.93945312 41.81445312 C-9.90433176 38.06187023 -9.87498967 34.30961206 -9.86157227 30.55688477 C-9.84609463 26.93726218 -9.80588442 23.31859014 -9.76171875 19.69921875 C-9.76362717 18.58028732 -9.76553558 17.4613559 -9.76750183 16.30851746 C-9.67059387 10.132595 -9.40993617 6.27672277 -5.1875 1.625 C-2.1875 -0.375 -2.1875 -0.375 0 0 Z " fill="#0B0B0B" transform="translate(430.1875,35.375)"/>
<path d="M0 0 C1 3 1 3 0.0625 5.1875 C-0.288125 5.785625 -0.63875 6.38375 -1 7 C1.45873768 6.85941524 3.91685175 6.71277001 6.375 6.5625 C7.07367188 6.52318359 7.77234375 6.48386719 8.4921875 6.44335938 C12.37360492 6.25719866 12.37360492 6.25719866 16 5 C18.3494053 5.60760482 20.68529088 6.27129528 23 7 C23 7.66 23 8.32 23 9 C12.11 9 1.22 9 -10 9 C-10 8.34 -10 7.68 -10 7 C-9.36191406 6.82984375 -8.72382813 6.6596875 -8.06640625 6.484375 C-6.82697266 6.12085937 -6.82697266 6.12085937 -5.5625 5.75 C-4.73878906 5.51796875 -3.91507812 5.2859375 -3.06640625 5.046875 C-0.80004532 4.19229321 -0.80004532 4.19229321 -0.21484375 1.890625 C-0.14394531 1.26671875 -0.07304687 0.6428125 0 0 Z " fill="#ABABAB" transform="translate(299,91)"/>
<path d="M0 0 C1.2375 0.1546875 1.2375 0.1546875 2.5 0.3125 C4.5 3.3125 4.5 3.3125 4.4375 5.875 C3.5 8.3125 3.5 8.3125 0.9375 9.625 C0.133125 9.851875 -0.67125 10.07875 -1.5 10.3125 C-3.78773145 8.50137927 -4.45209822 7.70529457 -4.8125 4.75 C-4.37135251 1.30904956 -3.43257879 0.42907235 0 0 Z " fill="#B1B1B1" transform="translate(201.5,113.6875)"/>
<path d="M0 0 C1.01771484 0.00451172 2.03542969 0.00902344 3.08398438 0.01367188 C5.57688509 0.02537563 8.06966074 0.04177152 10.5625 0.0625 C10.2325 0.7225 9.9025 1.3825 9.5625 2.0625 C8.5566687 2.08437378 8.5566687 2.08437378 7.53051758 2.10668945 C4.47811178 2.181383 1.42677415 2.27797299 -1.625 2.375 C-2.68009766 2.39755859 -3.73519531 2.42011719 -4.82226562 2.44335938 C-5.84384766 2.47880859 -6.86542969 2.51425781 -7.91796875 2.55078125 C-8.85535889 2.57696533 -9.79274902 2.60314941 -10.75854492 2.63012695 C-13.89774843 3.13678233 -15.81532703 4.30231129 -18.4375 6.0625 C-19.4275 6.5575 -19.4275 6.5575 -20.4375 7.0625 C-19.7775 5.0825 -19.1175 3.1025 -18.4375 1.0625 C-12.2698971 -0.03607724 -6.25334877 -0.05289104 0 0 Z " fill="#BDBDBD" transform="translate(378.4375,33.9375)"/>
<path d="M0 0 C3.39914975 1.13304992 4.05254451 2.12518475 6 5 C6.33 3.35 6.66 1.7 7 0 C7.66 0.33 8.32 0.66 9 1 C8.67 3.64 8.34 6.28 8 9 C6.35 7.68 4.7 6.36 3 5 C2.67 6.32 2.34 7.64 2 9 C1.34 9 0.68 9 0 9 C0 6.03 0 3.06 0 0 Z " fill="#6C6C6C" transform="translate(272,114)"/>
<path d="M0 0 C0.99 0.33 1.98 0.66 3 1 C3 1.66 3 2.32 3 3 C3.99 3.33 4.98 3.66 6 4 C6 2.68 6 1.36 6 0 C6.99 0.33 7.98 0.66 9 1 C8.67 3.64 8.34 6.28 8 9 C7.34 9 6.68 9 6 9 C6 7.68 6 6.36 6 5 C4.68 5 3.36 5 2 5 C1.67 6.32 1.34 7.64 1 9 C0.67 6.03 0.34 3.06 0 0 Z " fill="#5F5F5F" transform="translate(236,114)"/>
<path d="M0 0 C0.33 0.99 0.66 1.98 1 3 C0.34 4.32 -0.32 5.64 -1 7 C4.28 7 9.56 7 15 7 C15 7.33 15 7.66 15 8 C8.73 8 2.46 8 -4 8 C-3.67 6.68 -3.34 5.36 -3 4 C-2.34 4 -1.68 4 -1 4 C-0.67 2.68 -0.34 1.36 0 0 Z " fill="#B1B1B1" transform="translate(299,91)"/>
<path d="M0 0 C5.94 0 11.88 0 18 0 C18.66 1.98 19.32 3.96 20 6 C18.9275 5.360625 17.855 4.72125 16.75 4.0625 C11.38921335 1.33389816 5.92352087 1.1974507 0 1 C0 0.67 0 0.34 0 0 Z " fill="#474747" transform="translate(391,35)"/>
<path d="M0 0 C1.69141656 0.08963062 3.37959602 0.24577676 5.0625 0.4375 C6.44115234 0.59025391 6.44115234 0.59025391 7.84765625 0.74609375 C8.55792969 0.82988281 9.26820313 0.91367188 10 1 C10 1.66 10 2.32 10 3 C4.72 3 -0.56 3 -6 3 C-6 2.34 -6 1.68 -6 1 C-4.7934375 1.0309375 -4.7934375 1.0309375 -3.5625 1.0625 C-1.06645115 1.29633621 -1.06645115 1.29633621 0 0 Z " fill="#AFAFAF" transform="translate(422,97)"/>
<path d="M0 0 C0.97582031 0.10183594 1.95164062 0.20367187 2.95703125 0.30859375 C3.69308594 0.39238281 4.42914063 0.47617188 5.1875 0.5625 C5.1875 1.2225 5.1875 1.8825 5.1875 2.5625 C-0.0925 2.5625 -5.3725 2.5625 -10.8125 2.5625 C-10.8125 1.9025 -10.8125 1.2425 -10.8125 0.5625 C-7.01982808 -0.3735342 -3.87575435 -0.42026252 0 0 Z " fill="#A8A8A8" transform="translate(387.8125,97.4375)"/>
<path d="M0 0 C0 0.66 0 1.32 0 2 C-5.28 2 -10.56 2 -16 2 C-16 1.34 -16 0.68 -16 0 C-10.49983036 -1.30267176 -5.52967941 -0.71033431 0 0 Z " fill="#B2B2B2" transform="translate(59,98)"/>
<path d="M0 0 C5.28 0 10.56 0 16 0 C14.02 0.99 14.02 0.99 12 2 C9.51254129 3.89520664 7.21106147 5.78893853 5 8 C5.875 3.125 5.875 3.125 7 2 C4.69 1.67 2.38 1.34 0 1 C0 0.67 0 0.34 0 0 Z " fill="#909090" transform="translate(271,35)"/>
<path d="M0 0 C5.28 0 10.56 0 16 0 C11.54547969 3.34089023 10.95185771 3.30946125 5.75 2.6875 C4.67234375 2.56761719 3.5946875 2.44773438 2.484375 2.32421875 C1.66453125 2.21722656 0.8446875 2.11023437 0 2 C0 1.34 0 0.68 0 0 Z " fill="#BBBBBB" transform="translate(24,34)"/>
<path d="M0 0 C0.33 0.66 0.66 1.32 1 2 C0.67 2.66 0.34 3.32 0 4 C-0.23029956 6.37123246 -0.41119942 8.74741943 -0.5625 11.125 C-0.64628906 12.40632813 -0.73007813 13.68765625 -0.81640625 15.0078125 C-0.87699219 15.99523438 -0.93757813 16.98265625 -1 18 C-1.33 18 -1.66 18 -2 18 C-2.22786458 16.01432292 -2.45572917 14.02864583 -2.68359375 12.04296875 C-2.97170735 9.80603607 -2.97170735 9.80603607 -4 7 C-2.92745123 4.48301368 -1.45196548 2.33194455 0 0 Z " fill="#585858" transform="translate(91,48)"/>
<path d="M0 0 C1.32 0 2.64 0 4 0 C4 1.32 4 2.64 4 4 C4.99 3.67 5.98 3.34 7 3 C7 3.66 7 4.32 7 5 C4.03 5 1.06 5 -2 5 C-1.34 3.35 -0.68 1.7 0 0 Z " fill="#E2E2E2" transform="translate(238,119)"/>
<path d="M0 0 C0 3 0 3 -1.3125 4.38671875 C-2.875 5.59114583 -4.4375 6.79557292 -6 8 C-7.32 7.34 -8.64 6.68 -10 6 C-9.44570312 5.73445313 -8.89140625 5.46890625 -8.3203125 5.1953125 C-7.59585938 4.84210938 -6.87140625 4.48890625 -6.125 4.125 C-5.40570313 3.77695313 -4.68640625 3.42890625 -3.9453125 3.0703125 C-1.84864981 2.03442457 -1.84864981 2.03442457 0 0 Z " fill="#2A2A2A" transform="translate(204,90)"/>
<path d="M0 0 C2.97 0 5.94 0 9 0 C7.02 0.99 7.02 0.99 5 2 C3.32983484 2.99414593 1.66279327 3.9935725 0 5 C-0.99 5.495 -0.99 5.495 -2 6 C-1.34 4.02 -0.68 2.04 0 0 Z " fill="#2F2F2F" transform="translate(360,35)"/>
<path d="M0 0 C-1.41478135 0.64995297 -2.83191487 1.29478722 -4.25 1.9375 C-5.03890625 2.29714844 -5.8278125 2.65679687 -6.640625 3.02734375 C-8.75823698 3.90033279 -10.76669362 4.51338508 -13 5 C-9.44809236 0.85610776 -5.36327214 -1.71439369 0 0 Z " fill="#292929" transform="translate(112,36)"/>
<path d="M0 0 C0 0.66 0 1.32 0 2 C0.99 2.33 1.98 2.66 3 3 C0.03 3 -2.94 3 -6 3 C-6 2.34 -6 1.68 -6 1 C-3.92446352 0.4465236 -2.15634036 0 0 0 Z " fill="#A3A3A3" transform="translate(295,97)"/>
</svg>
